<?xml version="1.0" encoding="UTF-8"?>
<svg width="376px" height="109px" viewBox="0 0 376 109" version="1.1" xmlns="http://www.w3.org/2000/svg" xmlns:xlink="http://www.w3.org/1999/xlink">
    <!-- Generator: Sketch 48.2 (47327) - http://www.bohemiancoding.com/sketch -->
    <title>Group</title>
    <desc>Created with Sketch.</desc>
    <defs></defs>
    <g id="Page-1" stroke="none" stroke-width="1" fill="none" fill-rule="evenodd">
        <g id="Group">
            <g id="Group-2-Copy" transform="translate(93.000000, 76.000000)" fill="#50E3C2" fill-rule="nonzero">
                <g id="magic-wand">
                    <path d="M68.6522953,0 L48.7655852,0 C44.9323456,0 41.8238902,2.38782239 41.8238902,5.33357424 C41.8238902,8.27788066 44.9323456,10.6657031 48.7655852,10.6657031 L49.6925684,10.6657031 C53.525808,10.6657031 56.6342634,13.0535255 56.6342634,15.9992773 C56.6342634,18.9464745 53.525808,21.3342969 49.6925684,21.3342969 L6.94169497,21.3342969 C3.10845541,21.3342969 0,23.7235647 0,26.6678712 C0,29.6121776 3.10845541,32 6.94169497,32 L58.3159335,32 L163.324199,32 C167.157439,32 170.265894,29.6121776 170.265894,26.6678712 C170.265894,23.7235647 167.157439,21.3342969 163.324199,21.3342969 L151.459953,21.3342969 C147.625289,21.3342969 144.516834,18.9464745 144.516834,15.9992773 C144.516834,13.0535255 147.625289,10.6657031 151.459953,10.6657031 L198.056881,10.6657031 C201.890121,10.6657031 205,8.27788066 205,5.33357424 C205,2.38782239 201.890121,0 198.056881,0 L194.578202,0 L68.6522953,0 Z" id="path-1_24_"></path>
                    <path d="M190.726873,33 C187.563644,33 185,30.5368567 185,27.5006954 C185,24.4631433 187.563644,22 190.726873,22 L208.274528,22 C211.436356,22 214,24.4631433 214,27.5006954 C214,30.5368567 211.436356,33 208.274528,33 L190.726873,33 Z" id="path-2_24_"></path>
                </g>
            </g>
            <g id="star-copy" transform="translate(164.000000, 17.000000)" fill-rule="nonzero">
                <path d="M80.0653072,28.178226 L53.5052442,25.7210466 L42.954778,1.28336318 C42.216011,-0.427787726 39.7838391,-0.427787726 39.0452708,1.28336318 L28.4948045,25.7208485 L1.93474148,28.178226 C0.0749154753,28.3501731 -0.676561472,30.6575921 0.726500006,31.8871723 L20.7661501,49.4475663 L14.9014921,75.4038516 C14.4908012,77.2213799 16.458662,78.6472729 18.0644872,77.6962153 L41.0000244,64.1116026 L63.9355615,77.6962153 C65.5415853,78.647471 67.5090489,77.2213799 67.0985566,75.4038516 L61.2337001,49.4475663 L81.2735487,31.8871723 C82.6766102,30.6575921 81.9249346,28.3501731 80.0653072,28.178226 Z" id="Shape" fill="#FFDC64"></path>
                <path d="M47,10.169948 L43.1462563,1.28336449 C42.4041927,-0.427788163 39.9611678,-0.427788163 39.2193037,1.28336449 L28.6217579,25.7208747 L1.94337491,28.1782548 C0.0752497719,28.350202 -0.679580504,30.6576234 0.72974188,31.8872049 L20.8588152,49.4476168 L14.9679873,75.4039285 C14.5554638,77.2214587 16.5321057,78.6473532 18.1450966,77.6962946 L21.2112954,75.8882731 C26.2379783,43.5748648 40.3695022,19.8544618 47,10.169948 Z" id="Shape" fill="#FFC850"></path>
            </g>
            <path d="M244.065307,45.178226 L217.505244,42.7210466 L206.954778,18.2833632 C206.216011,16.5722123 203.783839,16.5722123 203.045271,18.2833632 L192.494805,42.7208485 L165.934741,45.178226 C164.074915,45.3501731 163.323439,47.6575921 164.7265,48.8871723 L184.76615,66.4475663 L178.901492,92.4038516 C178.490801,94.2213799 180.458662,95.6472729 182.064487,94.6962153 L205.000024,81.1116026 L227.935562,94.6962153 C229.541585,95.647471 231.509049,94.2213799 231.098557,92.4038516 L225.2337,66.4475663 L245.273549,48.8871723 C246.67661,47.6575921 245.924935,45.3501731 244.065307,45.178226 Z" id="Shape-Copy" stroke="#4A4A4A" stroke-width="4" fill-rule="nonzero"></path>
            <path d="M63.7548519,93.3278856 L26.8845761,93.3278856 L26.8845761,90.1273408 C34.8219271,90.1273408 41.3510385,89.4872319 41.3510385,83.0861423 L41.3510385,11.9060266 C41.3510385,6.52911134 38.7906027,4.48076268 30.597208,4.48076268 C14.082397,4.48076268 7.42526387,14.3384406 1.79230507,23.4279877 L0,22.4038134 L7.42526387,1.28021791 L83.3421859,1.28021791 L90.8954716,23.299966 L88.7191011,24.1961185 C82.5740552,13.9543752 78.0932925,4.48076268 62.2185904,4.48076268 C53.3850868,4.48076268 49.2883895,6.52911134 49.2883895,11.9060266 L49.2883895,83.0861423 C49.2883895,89.4872319 54.4092612,90.1273408 63.7548519,90.1273408 L63.7548519,93.3278856 Z M125.589377,93.1998638 L100.625128,93.1998638 L100.625128,89.999319 C106.770174,89.999319 109.074566,88.207014 109.074566,83.3421859 L109.074566,15.2345931 C109.074566,9.72965611 106.898195,8.4494382 101.137215,8.4494382 L100.625128,6.40108955 L116.755873,0 L116.755873,42.247191 C122.132789,37.6384065 129.430031,31.237317 139.927818,31.237317 C150.297583,31.237317 156.826694,35.8461015 156.826694,47.4960844 L156.826694,83.3421859 C156.826694,87.9509704 159.515152,89.999319 165.404154,89.999319 L165.404154,93.1998638 L140.439905,93.1998638 L140.439905,89.999319 C147.097038,89.999319 149.145386,87.9509704 149.145386,83.3421859 L149.145386,49.8004767 C149.145386,42.1191692 146.072863,37.382363 136.471229,37.382363 C127.509704,37.382363 121.748723,41.4790603 116.755873,46.5999319 L116.755873,83.3421859 C116.755873,88.207014 119.316309,89.999319 125.589377,89.999319 L125.589377,93.1998638 Z M269.48587,93.1998638 L244.777664,93.1998638 L244.777664,89.999319 C251.178754,89.999319 253.227102,88.0789922 253.227102,82.4460334 L253.227102,45.0636704 C253.227102,39.814777 251.818863,38.2785155 245.16173,38.2785155 L244.777664,36.2301668 L260.90841,31.237317 L260.90841,42.5032346 C266.541369,37.7664283 273.838611,31.3653388 284.336398,31.3653388 C294.834185,31.3653388 300.595165,38.1504937 300.595165,49.5444331 L300.595165,82.4460334 C300.595165,88.0789922 303.027579,89.999319 309.172625,89.999319 L309.172625,93.1998638 L284.464419,93.1998638 L284.464419,89.999319 C290.609465,89.999319 292.913858,88.0789922 292.913858,82.4460334 L292.913858,49.1603677 C292.913858,41.9911474 290.481444,36.9982976 281.903984,36.9982976 C273.582567,36.9982976 267.181478,40.8389513 260.90841,46.4719101 L260.90841,82.4460334 C260.90841,88.0789922 263.468846,89.999319 269.48587,89.999319 L269.48587,93.1998638 Z M374.079673,78.0932925 L376,79.2454886 C370.239019,87.566905 363.197821,95.2482125 350.395642,95.2482125 C334.776983,95.2482125 322.230848,81.8059244 322.230848,65.1630916 C322.230848,44.679605 337.081376,31.237317 353.212121,31.237317 C362.557712,31.237317 374.079673,36.2301668 374.079673,44.1675179 C374.079673,47.1120191 372.159346,49.1603677 369.086823,49.1603677 C364.478039,49.1603677 364.221995,45.319714 362.557712,42.1191692 C359.997276,37.5103847 357.43684,34.5658836 349.883555,34.5658836 C339.769833,34.5658836 330.680286,44.679605 330.680286,62.6026558 C330.680286,78.8614232 338.361593,90.1273408 352.700034,90.1273408 C360.381342,90.1273408 366.270344,87.566905 374.079673,78.0932925 Z" id="Thanc-Copy" fill="#4A4A4A"></path>
        </g>
    </g>
</svg>